<?xml version="1.0" standalone="no"?>
<!DOCTYPE svg PUBLIC "-//W3C//DTD SVG 20010904//EN"
 "http://www.w3.org/TR/2001/REC-SVG-20010904/DTD/svg10.dtd">
<svg version="1.0" xmlns="http://www.w3.org/2000/svg"
 width="300.000000pt" height="300.000000pt" viewBox="0 0 300.000000 300.000000"
 preserveAspectRatio="xMidYMid meet">
<metadata>
Created by potrace 1.10, written by Peter Selinger 2001-2011
</metadata>
<g transform="translate(0.000000,300.000000) scale(0.100000,-0.100000)"
fill="#2F4F2F" stroke="#fef3c6">
<path d="M910 2550 l0 -120 180 0 c112 0 180 -4 180 -10 0 -6 -124 -11 -337
-12 l-338 -3 -3 -337 c-1 -214 -6 -338 -12 -338 -6 0 -10 68 -10 180 l0 180
-120 0 -120 0 0 -590 0 -590 120 0 120 0 0 180 c0 112 4 180 10 180 6 0 11
-124 12 -338 l3 -337 338 -3 c213 -1 337 -6 337 -12 0 -6 -68 -10 -180 -10
l-180 0 0 -120 0 -120 590 0 590 0 0 120 0 120 -180 0 c-112 0 -180 4 -180 10
0 6 124 11 338 12 l337 3 3 337 c1 214 6 338 12 338 6 0 10 -68 10 -180 l0
-180 120 0 120 0 0 590 0 590 -120 0 -120 0 0 -180 c0 -112 -4 -180 -10 -180
-6 0 -11 124 -12 338 l-3 337 -337 3 c-214 1 -338 6 -338 12 0 6 68 10 180 10
l180 0 0 120 0 120 -590 0 -590 0 0 -120z m1160 0 l0 -100 -175 0 -175 0 0
-30 0 -30 335 0 335 0 0 -335 0 -335 30 0 30 0 0 175 0 175 100 0 100 0 0
-570 0 -570 -100 0 -100 0 0 175 0 175 -30 0 -30 0 0 -335 0 -335 -335 0 -335
0 0 -30 0 -30 178 0 177 0 -1 -40 c-1 -22 -2 -67 -3 -100 l-1 -60 -570 0 -570
0 0 100 0 100 175 0 175 0 0 30 0 30 -335 0 -335 0 0 335 0 335 -30 0 -30 0 0
-175 0 -175 -100 0 -100 0 0 568 c0 313 2 571 4 573 2 2 47 3 100 1 l96 -3 0
-175 0 -174 30 0 30 0 0 335 0 335 335 0 335 0 0 30 0 30 -175 0 -175 0 0 100
0 100 570 0 570 0 0 -100z"/>
<path d="M950 2550 l0 -80 181 0 180 0 -3 -52 -3 -53 -332 -3 -333 -2 -2 -333
-3 -332 -52 -3 -53 -3 0 180 0 181 -80 0 -80 0 0 -550 0 -550 80 0 80 0 0 181
0 180 53 -3 52 -3 3 -332 2 -333 333 -2 332 -3 3 -52 3 -53 -180 0 -181 0 0
-80 0 -80 550 0 550 0 0 80 0 80 -181 0 -180 0 3 53 3 52 332 3 333 2 2 333 3
332 53 3 52 3 0 -180 0 -181 80 0 80 0 0 550 0 550 -80 0 -80 0 0 -181 0 -180
-52 3 -53 3 -3 332 -2 333 -333 2 -332 3 -3 53 -3 52 180 0 181 0 0 80 0 80
-550 0 -550 0 0 -80z m1075 -1 l0 -51 -177 2 -178 1 0 -81 0 -80 335 0 335 0
0 -335 0 -335 80 0 81 0 -1 178 -2 177 51 0 51 0 0 -525 0 -525 -51 0 -51 0 2
178 1 177 -81 0 -80 0 0 -335 0 -335 -335 0 -335 0 0 -80 0 -81 178 2 177 1 3
-51 3 -51 -520 0 c-287 0 -524 0 -528 0 -5 0 -8 23 -8 51 l0 51 178 -2 177 -1
0 81 0 80 -335 0 -335 0 0 335 0 335 -80 0 -81 0 1 -178 2 -177 -51 0 -51 0 0
525 0 525 51 0 51 0 -2 -177 -1 -178 81 0 80 0 0 335 0 335 335 0 335 0 0 80
0 81 -177 -2 -178 -1 -3 42 c-2 23 -1 47 1 54 3 8 145 10 528 9 l524 -3 0 -51z"/>

<path d="M1480 1500 c0 -13 7 -20 20 -20 13 0 20 7 20 20 0 13 -7 20 -20 20
-13 0 -20 -7 -20 -20z"/>
</g>
</svg>
