<?xml version="1.0" standalone="no"?>
<!DOCTYPE svg PUBLIC "-//W3C//DTD SVG 20010904//EN"
 "http://www.w3.org/TR/2001/REC-SVG-20010904/DTD/svg10.dtd">
<svg version="1.0" xmlns="http://www.w3.org/2000/svg"
 width="300.000000pt" height="300.000000pt" viewBox="0 0 300.000000 300.000000"
 preserveAspectRatio="xMidYMid meet">
<metadata>
Created by potrace 1.10, written by Peter Selinger 2001-2011
</metadata>
<g transform="translate(0.000000,300.000000) scale(0.100000,-0.100000)"
fill="#fef3c6" stroke="#fef3c6">
<path d="M910 2550 l0 -120 180 0 c112 0 180 -4 180 -10 0 -6 -124 -11 -337
-12 l-338 -3 -3 -337 c-1 -214 -6 -338 -12 -338 -6 0 -10 68 -10 180 l0 180
-120 0 -120 0 0 -590 0 -590 120 0 120 0 0 180 c0 112 4 180 10 180 6 0 11
-124 12 -338 l3 -337 338 -3 c213 -1 337 -6 337 -12 0 -6 -68 -10 -180 -10
l-180 0 0 -120 0 -120 590 0 590 0 0 120 0 120 -180 0 c-112 0 -180 4 -180 10
0 6 124 11 338 12 l337 3 3 337 c1 214 6 338 12 338 6 0 10 -68 10 -180 l0
-180 120 0 120 0 0 590 0 590 -120 0 -120 0 0 -180 c0 -112 -4 -180 -10 -180
-6 0 -11 124 -12 338 l-3 337 -337 3 c-214 1 -338 6 -338 12 0 6 68 10 180 10
l180 0 0 120 0 120 -590 0 -590 0 0 -120z m1160 0 l0 -100 -175 0 -175 0 0
-30 0 -30 335 0 335 0 0 -335 0 -335 30 0 30 0 0 175 0 175 100 0 100 0 0
-570 0 -570 -100 0 -100 0 0 175 0 175 -30 0 -30 0 0 -335 0 -335 -335 0 -335
0 0 -30 0 -30 178 0 177 0 -1 -40 c-1 -22 -2 -67 -3 -100 l-1 -60 -570 0 -570
0 0 100 0 100 175 0 175 0 0 30 0 30 -335 0 -335 0 0 335 0 335 -30 0 -30 0 0
-175 0 -175 -100 0 -100 0 0 568 c0 313 2 571 4 573 2 2 47 3 100 1 l96 -3 0
-175 0 -174 30 0 30 0 0 335 0 335 335 0 335 0 0 30 0 30 -175 0 -175 0 0 100
0 100 570 0 570 0 0 -100z"/>
<path d="M950 2550 l0 -80 181 0 180 0 -3 -52 -3 -53 -332 -3 -333 -2 -2 -333
-3 -332 -52 -3 -53 -3 0 180 0 181 -80 0 -80 0 0 -550 0 -550 80 0 80 0 0 181
0 180 53 -3 52 -3 3 -332 2 -333 333 -2 332 -3 3 -52 3 -53 -180 0 -181 0 0
-80 0 -80 550 0 550 0 0 80 0 80 -181 0 -180 0 3 53 3 52 332 3 333 2 2 333 3
332 53 3 52 3 0 -180 0 -181 80 0 80 0 0 550 0 550 -80 0 -80 0 0 -181 0 -180
-52 3 -53 3 -3 332 -2 333 -333 2 -332 3 -3 53 -3 52 180 0 181 0 0 80 0 80
-550 0 -550 0 0 -80z m1075 -1 l0 -51 -177 2 -178 1 0 -81 0 -80 335 0 335 0
0 -335 0 -335 80 0 81 0 -1 178 -2 177 51 0 51 0 0 -525 0 -525 -51 0 -51 0 2
178 1 177 -81 0 -80 0 0 -335 0 -335 -335 0 -335 0 0 -80 0 -81 178 2 177 1 3
-51 3 -51 -520 0 c-287 0 -524 0 -528 0 -5 0 -8 23 -8 51 l0 51 178 -2 177 -1
0 81 0 80 -335 0 -335 0 0 335 0 335 -80 0 -81 0 1 -178 2 -177 -51 0 -51 0 0
525 0 525 51 0 51 0 -2 -177 -1 -178 81 0 80 0 0 335 0 335 335 0 335 0 0 80
0 81 -177 -2 -178 -1 -3 42 c-2 23 -1 47 1 54 3 8 145 10 528 9 l524 -3 0 -51z"/>
<path d="M1490 2366 c0 -19 -51 -57 -120 -90 -73 -34 -110 -73 -117 -124 l-5
-40 -36 24 c-46 31 -103 31 -188 -1 -73 -27 -105 -31 -135 -14 -19 9 -19 9
-10 -10 16 -29 14 -54 -14 -133 -32 -92 -32 -144 -1 -190 l24 -36 -40 -5 c-51
-7 -90 -44 -124 -117 -33 -69 -71 -120 -90 -120 -7 0 -14 -4 -14 -10 0 -5 7
-10 14 -10 19 0 57 -51 90 -120 34 -73 73 -110 124 -117 l40 -5 -24 -36 c-31
-46 -31 -103 1 -188 27 -73 31 -105 14 -135 -9 -19 -9 -19 10 -10 30 17 62 13
135 -14 85 -32 142 -32 188 -1 l36 24 5 -40 c7 -52 41 -87 125 -128 72 -35
112 -66 112 -87 0 -7 5 -13 10 -13 6 0 10 6 10 13 0 21 40 52 112 87 84 41
118 76 125 128 l5 40 36 -24 c46 -31 103 -31 188 1 73 27 105 31 135 14 19 -9
19 -9 10 10 -17 30 -13 62 14 135 32 85 32 142 1 188 l-24 36 40 5 c53 7 91
44 129 127 33 70 64 110 86 110 7 0 13 5 13 10 0 6 -6 10 -13 10 -22 0 -53 40
-86 110 -38 83 -76 120 -129 127 l-40 5 24 36 c31 46 31 98 -1 190 -28 79 -30
104 -14 133 9 19 9 19 -10 10 -30 -17 -62 -13 -135 14 -85 32 -142 32 -188 1
l-36 -24 -5 40 c-7 53 -44 91 -127 129 -70 33 -110 64 -110 86 0 7 -4 13 -10
13 -5 0 -10 -7 -10 -14z m23 -40 c3 -7 38 -30 79 -50 87 -44 99 -53 122 -87
16 -25 25 -93 14 -105 -4 -3 -27 2 -52 10 -26 9 -57 16 -70 16 -29 0 -83 58
-92 98 -11 52 -17 58 -24 22 -14 -73 -49 -110 -123 -126 -29 -7 -62 -15 -74
-19 -22 -7 -23 -4 -23 37 0 70 23 96 138 154 41 20 76 43 79 50 3 8 9 14 13
14 4 0 10 -6 13 -14z m9 -176 l17 -30 -39 0 -39 0 17 30 c9 16 19 30 22 30 3
0 13 -14 22 -30z m-322 -25 c39 -20 65 -65 37 -65 -7 0 -37 -16 -67 -35 -65
-41 -100 -43 -161 -12 l-44 22 23 -44 c30 -61 28 -94 -13 -161 -19 -32 -35
-63 -35 -69 0 -26 -45 1 -65 39 -22 42 -19 96 11 180 14 42 23 83 20 96 -6 21
-3 23 21 19 16 -3 56 5 93 19 76 28 139 32 180 11z m780 -11 c43 -15 83 -23
97 -19 21 5 23 3 18 -18 -4 -14 4 -54 19 -97 30 -84 33 -138 11 -180 -19 -36
-65 -65 -65 -41 0 6 -16 37 -35 70 -41 69 -43 101 -12 162 l22 44 -44 -22
c-61 -31 -96 -29 -161 12 -30 19 -60 35 -67 35 -27 0 -3 44 35 64 40 22 100
19 182 -10z m-583 -159 l-82 -144 -168 -1 -168 0 47 61 c46 61 135 134 206
170 50 25 165 57 210 58 l36 1 -81 -145z m127 108 c10 -20 46 -86 81 -145 l64
-108 -169 0 -169 0 64 108 c35 59 71 125 81 145 10 20 21 37 24 37 3 0 14 -17
24 -37z m135 17 c40 -11 89 -29 110 -39 70 -36 159 -109 205 -170 l47 -61
-168 0 -168 1 -82 144 -81 145 31 0 c18 0 65 -9 106 -20z m-572 -114 c2 -1
-10 -15 -26 -30 l-28 -27 -10 39 -10 40 36 -10 c20 -6 37 -11 38 -12z m891
-17 l-11 -40 -29 28 -29 28 38 12 c21 6 39 12 39 12 1 1 -3 -17 -8 -40z m-678
-157 c0 -2 -150 -263 -155 -270 -2 -2 -33 50 -70 115 -38 65 -74 127 -81 138
-13 20 -11 20 146 20 88 0 160 -1 160 -3z m190 -4 c0 -3 -13 -11 -29 -16 -16
-6 -34 -19 -40 -30 -7 -14 -17 -18 -32 -15 -11 3 -38 0 -59 -7 -33 -11 -40
-19 -50 -56 -7 -24 -10 -50 -7 -59 4 -8 -1 -19 -12 -25 -10 -5 -28 -25 -40
-45 l-20 -35 20 -35 c12 -20 30 -40 40 -45 11 -6 16 -17 12 -25 -3 -9 0 -35 7
-59 10 -38 17 -45 51 -55 22 -7 48 -9 59 -6 13 4 22 -1 30 -15 6 -12 25 -26
41 -32 49 -17 33 -24 -54 -23 l-83 0 -40 69 c-21 37 -60 104 -86 147 l-47 79
47 79 c26 43 65 110 86 147 l40 69 83 0 c46 0 83 -3 83 -7z m226 -62 c21 -37
60 -104 86 -147 l47 -79 -47 -79 c-26 -43 -65 -110 -86 -147 l-40 -69 -83 0
c-87 0 -102 6 -54 23 16 6 35 20 41 32 8 14 17 19 30 15 11 -3 37 -1 59 6 34
10 41 17 51 55 7 24 10 50 7 59 -4 8 1 19 12 25 10 5 28 25 40 45 l20 35 -20
35 c-12 20 -30 40 -41 46 -13 7 -17 16 -13 29 3 11 1 37 -6 58 -9 33 -18 42
-49 52 -21 7 -48 10 -59 7 -15 -3 -25 1 -32 15 -6 11 -24 24 -40 30 -48 17
-33 23 54 23 l83 0 40 -69z m290 49 c-7 -11 -43 -73 -81 -138 l-68 -119 -25
44 c-14 24 -49 84 -78 134 -30 50 -54 93 -54 95 0 2 72 4 160 4 157 0 159 0
146 -20z m-1000 -53 c17 -31 52 -94 78 -139 l47 -83 -47 -82 c-26 -46 -61
-109 -78 -140 -17 -32 -34 -58 -37 -58 -9 0 -35 66 -53 138 -20 77 -20 207 0
284 18 72 44 138 53 138 3 0 20 -26 37 -58z m1047 19 c62 -155 62 -327 0 -482
-8 -22 -18 -39 -22 -39 -3 0 -20 26 -37 58 -17 31 -52 94 -78 140 l-48 82 48
83 c26 45 61 108 78 139 17 32 34 58 37 58 4 0 14 -17 22 -39z m-513 14 c45
-23 40 -45 -9 -34 -22 5 -51 5 -70 -1 -41 -11 -43 13 -3 34 35 19 46 19 82 1z
m-625 -49 c-4 -11 -12 -45 -19 -75 -13 -59 -55 -106 -103 -117 -53 -11 -59
-17 -23 -24 73 -14 110 -49 126 -123 7 -29 15 -62 19 -73 5 -17 2 -22 -17 -26
-66 -12 -119 28 -166 127 -17 35 -40 73 -52 85 l-20 20 20 20 c12 12 35 50 52
85 47 99 100 139 166 127 19 -4 22 -9 17 -26z m1275 7 c34 -23 44 -38 79 -110
17 -34 39 -71 51 -83 l20 -20 -20 -20 c-12 -12 -34 -49 -51 -83 -49 -101 -79
-127 -147 -127 -41 0 -44 1 -37 23 4 12 12 45 19 74 16 74 69 123 131 123 14
0 25 5 25 10 0 6 -11 10 -25 10 -62 0 -115 49 -131 123 -7 29 -15 62 -19 75
-7 21 -4 22 37 22 25 0 54 -7 68 -17z m-843 -55 c-29 -29 -54 -49 -56 -45 -1
4 0 24 4 43 7 37 28 52 77 53 26 1 25 -1 -25 -51z m214 40 c151 -52 194 -231
83 -342 -116 -117 -304 -63 -345 98 -38 151 116 295 262 244z m131 -6 c5 -5
12 -29 15 -53 l5 -44 -27 32 c-14 18 -40 44 -58 58 l-32 27 44 -5 c24 -3 48
-10 53 -15z m-412 -157 c-4 -19 -4 -51 0 -70 11 -48 -12 -47 -35 2 -17 35 -17
38 0 70 25 45 45 44 35 -2z m475 2 c17 -32 17 -35 0 -70 -23 -49 -46 -50 -35
-2 4 19 4 51 0 70 -10 46 10 47 35 2z m-875 -37 l0 -39 -30 17 c-16 9 -30 19
-30 22 0 4 45 35 58 39 1 1 2 -17 2 -39z m1300 0 c0 -3 -14 -13 -30 -22 l-30
-17 0 39 0 39 30 -17 c16 -9 30 -19 30 -22z m-956 -157 c42 -73 76 -134 76
-135 0 -2 -72 -3 -160 -3 -157 0 -159 0 -146 20 7 11 43 73 81 138 37 65 68
117 70 115 1 -2 36 -63 79 -135z m702 20 c37 -65 73 -127 80 -138 13 -20 11
-20 -146 -20 -88 0 -159 3 -157 7 3 9 152 268 154 268 1 0 32 -53 69 -117z
m-553 -48 l32 -27 -44 5 c-24 3 -48 10 -53 15 -5 5 -12 29 -15 53 l-5 44 27
-32 c14 -18 40 -44 58 -58z m332 29 c-6 -37 -32 -54 -80 -54 -21 0 -19 5 28
53 29 28 54 48 56 44 1 -4 0 -24 -4 -43z m-170 -65 c27 7 35 6 35 -3 0 -7 -16
-21 -35 -32 -34 -18 -36 -18 -70 0 -19 11 -35 25 -35 32 0 9 8 10 35 3 23 -6
47 -6 70 0z m-595 -38 c0 -6 16 -37 35 -70 41 -69 43 -101 13 -162 l-23 -44
44 23 c61 30 96 28 161 -13 30 -19 60 -35 67 -35 28 0 2 -45 -37 -65 -42 -22
-96 -19 -180 11 -43 15 -83 23 -97 19 -21 -5 -23 -3 -18 18 4 14 -4 54 -19 97
-30 84 -33 138 -11 180 19 37 65 66 65 41z m1151 -1 c27 -15 49 -63 49 -108 0
-21 -12 -72 -26 -112 -15 -43 -23 -83 -19 -97 5 -21 3 -23 -18 -18 -14 4 -54
-4 -97 -19 -84 -30 -138 -33 -180 -11 -39 20 -65 65 -37 65 7 0 37 16 67 35
65 41 100 43 161 13 l44 -23 -22 44 c-31 61 -29 94 12 161 19 32 35 63 35 69
0 14 6 14 31 1z m-694 -195 l81 -145 -31 0 c-41 0 -168 35 -216 59 -70 36
-159 109 -205 170 l-47 61 168 0 168 -1 82 -144z m208 37 c-35 -59 -71 -125
-81 -145 -10 -20 -21 -37 -24 -37 -3 0 -14 17 -24 37 -10 20 -46 86 -81 145
l-64 108 169 0 169 0 -64 -108z m369 47 c-46 -61 -135 -134 -205 -170 -48 -24
-175 -59 -216 -59 l-31 0 81 145 82 144 168 1 168 0 -47 -61z m-887 -95 c-1
-1 -18 -6 -38 -12 l-36 -10 10 40 10 39 28 -27 c16 -15 28 -29 26 -30z m891
15 l10 -36 -40 10 -39 10 27 28 c15 16 29 28 30 26 1 -1 6 -18 12 -38z m-611
-153 c74 -16 123 -69 123 -131 0 -14 5 -25 10 -25 6 0 10 12 10 26 0 50 58
124 97 124 12 0 43 7 69 16 25 8 48 13 52 10 11 -12 2 -80 -14 -105 -23 -34
-37 -44 -111 -80 -34 -17 -71 -39 -83 -51 l-20 -20 -20 20 c-12 12 -50 35 -85
52 -99 47 -139 100 -127 166 4 19 9 22 26 17 11 -4 44 -12 73 -19z m155 -46
c-9 -16 -19 -30 -22 -30 -3 0 -13 14 -22 30 l-17 30 39 0 39 0 -17 -30z"/>
<path d="M1480 1500 c0 -13 7 -20 20 -20 13 0 20 7 20 20 0 13 -7 20 -20 20
-13 0 -20 -7 -20 -20z"/>
</g>
</svg>
